<svg width="30" height="27" viewBox="0 0 19 17" fill="none" xmlns="http://www.w3.org/2000/svg">
<path fill-rule="evenodd" clip-rule="evenodd" d="M3.17881 2.54892L0.496771 1.05311C0.2556 0.918605 0.16913 0.614061 0.303634 0.37289C0.438138 0.131719 0.742682 0.0452489 0.983853 0.179753L3.81095 1.75646C4.00125 1.8626 4.09523 2.07461 4.06032 2.27782L4.1416 2.98904C4.14227 2.99488 4.1377 3 4.13183 3C4.12595 3 4.12138 3.00512 4.12205 3.01096L4.83246 9.2271C4.94791 10.2372 5.80282 11 6.81953 11H15.1805C16.1972 11 17.0521 10.2372 17.1675 9.22709L17.1935 9H9.5C9.22386 9 9 8.77614 9 8.5C9 8.22386 9.22386 8 9.5 8H17.3078L17.5365 5.99869C17.5244 5.99956 17.5123 6 17.5 6H7.5C7.22386 6 7 5.77614 7 5.5C7 5.22386 7.22386 5 7.5 5H17.5C17.5516 5 17.6013 5.00781 17.6481 5.0223L17.878 3.01096C17.8786 3.00512 17.8741 3 17.8682 3L17.8681 3L5.49998 2.99999C5.22384 2.99999 4.99998 2.77614 4.99998 2.49999C4.99998 2.22385 5.22384 1.99999 5.49998 1.99999L17.9935 2L18.3001 2C18.5762 2 18.8001 2.22386 18.8001 2.5L18.8001 2.50275C18.8731 2.65117 18.9061 2.82191 18.8857 3L18.0598 10.2271C17.9443 11.2372 17.0894 12 16.0727 12H15.5H6.5H5.9273C4.9106 12 4.05568 11.2372 3.94024 10.2271L3.11429 3C3.09601 2.8401 3.12074 2.68613 3.17881 2.54892ZM6.5 12C7.88071 12 9 13.1193 9 14.5C9 15.8807 7.88071 17 6.5 17C5.11929 17 4 15.8807 4 14.5C4 13.1193 5.11929 12 6.5 12ZM15.5 12C16.8807 12 18 13.1193 18 14.5C18 15.8807 16.8807 17 15.5 17C14.1193 17 13 15.8807 13 14.5C13 13.1193 14.1193 12 15.5 12ZM6.5 16C7.32842 16 8 15.3284 8 14.5C8 13.6716 7.32842 13 6.5 13C5.67157 13 5 13.6716 5 14.5C5 15.3284 5.67157 16 6.5 16ZM15.5 16C16.3284 16 17 15.3284 17 14.5C17 13.6716 16.3284 13 15.5 13C14.6716 13 14 13.6716 14 14.5C14 15.3284 14.6716 16 15.5 16Z" fill="black"/>
</svg>
