<svg version="1.1" xmlns="http://www.w3.org/2000/svg" xmlns:xlink="http://www.w3.org/1999/xlink" width="30" height="27" viewBox="0,0,256,230.39063"><g fill="none" fill-rule="none" stroke="none" stroke-width="1" stroke-linecap="butt" stroke-linejoin="miter" stroke-miterlimit="10" stroke-dasharray="" stroke-dashoffset="0" font-family="none" font-weight="none" font-size="none" text-anchor="none" style="mix-blend-mode: normal"><g transform="translate(32,30.32156) scale(6.4,6.22703)"><path d="M2.11352,14.1406c-1.31584,-1.4999 -2.11352,-3.4658 -2.11352,-5.61787c0,-4.70698 3.81575,-8.52273 8.52273,-8.52273c2.59217,0 4.91417,1.15728 6.47727,2.98337c1.5631,-1.82609 3.8851,-2.98337 6.4773,-2.98337c4.7069,0 8.5227,3.81575 8.5227,8.52273c0,2.18807 -0.8246,4.18357 -2.1799,5.69277c-2.333,3.6789 -12.8299,12.4393 -12.8299,12.4393c0,0 -10.64116,-8.8807 -12.87668,-12.5142z" fill="#ff0000" fill-rule="evenodd"></path><path d="M2.11352,14.1406l1.70341,-1.048l-0.08853,-0.1439l-0.1114,-0.127zM15,2.98337l-1.5194,1.30058l1.5194,1.77495l1.5194,-1.77495zM27.8201,14.2155l-1.488,-1.3364l-0.1116,0.1243l-0.0895,0.141zM14.9902,26.6548l-1.2815,1.5355l1.2815,1.0695l1.2815,-1.0695zM3.617,12.8217c-1.00807,-1.1491 -1.617,-2.6505 -1.617,-4.29897h-4c0,2.65577 0.98643,5.08597 2.61003,6.93677zM2,8.52273c0,-3.60241 2.92032,-6.52273 6.52273,-6.52273v-4c-5.81154,0 -10.52273,4.71119 -10.52273,10.52273zM8.52273,2c1.98347,0 3.75857,0.88282 4.95787,2.28395l3.0388,-2.60117c-1.9269,-2.25103 -4.7957,-3.68278 -7.99667,-3.68278zM16.5194,4.28395c1.1993,-1.40113 2.9744,-2.28395 4.9579,-2.28395v-4c-3.201,0 -6.0698,1.43175 -7.9967,3.68278zM21.4773,2c3.6024,0 6.5227,2.92032 6.5227,6.52273h4c0,-5.81154 -4.7112,-10.52273 -10.5227,-10.52273zM28,8.52273c0,1.67587 -0.6294,3.20007 -1.6679,4.35637l2.9759,2.6727c1.6722,-1.8619 2.692,-4.3288 2.692,-7.02907zM26.131,13.1444c-0.4603,0.7259 -1.4211,1.8334 -2.7281,3.1668c-1.2745,1.3002 -2.7742,2.7115 -4.2178,4.0235c-1.4409,1.3095 -2.8118,2.5073 -3.8234,3.3783c-0.5053,0.4352 -0.9201,0.788 -1.2078,1.0315c-0.1439,0.1217 -0.256,0.216 -0.3317,0.2797c-0.0378,0.0318 -0.0666,0.0559 -0.0857,0.0719c-0.0096,0.008 -0.0167,0.014 -0.0214,0.0178c-0.0023,0.002 -0.004,0.0034 -0.0051,0.0043c-0.0005,0.0005 -0.0009,0.0008 -0.0011,0.001c-0.0001,0.0001 -0.0002,0.0001 -0.0002,0.0001c-0.0001,0 0,0 1.2815,1.5355c1.2815,1.5355 1.2816,1.5354 1.2817,1.5353c0.0001,-0.0001 0.0003,-0.0002 0.0005,-0.0004c0.0004,-0.0004 0.001,-0.0008 0.0018,-0.0014c0.0014,-0.0013 0.0035,-0.003 0.0063,-0.0053c0.0054,-0.0046 0.0134,-0.0112 0.0237,-0.0199c0.0208,-0.0174 0.0512,-0.0429 0.0908,-0.0762c0.0792,-0.0665 0.1949,-0.1639 0.3427,-0.2889c0.2954,-0.25 0.7189,-0.6103 1.2341,-1.0539c1.0295,-0.8865 2.4287,-2.1088 3.9036,-3.4493c1.4722,-1.3379 3.0342,-2.8065 4.384,-4.1836c1.3174,-1.3439 2.5435,-2.711 3.2497,-3.8247zM14.9902,26.6548c1.2815,-1.5355 1.2815,-1.5355 1.2815,-1.5355c-0.0001,0 -0.0001,0 -0.0002,-0.0001c-0.0003,-0.0002 -0.0006,-0.0006 -0.0012,-0.001c-0.0011,-0.0009 -0.0028,-0.0024 -0.0052,-0.0043c-0.0047,-0.004 -0.0119,-0.01 -0.0216,-0.0182c-0.0194,-0.0162 -0.0486,-0.0406 -0.0869,-0.0729c-0.0768,-0.0644 -0.1903,-0.16 -0.3361,-0.2834c-0.2914,-0.2466 -0.7114,-0.6039 -1.2227,-1.0443c-1.0235,-0.8816 -2.4092,-2.0927 -3.8618,-3.4142c-1.45542,-1.3241 -2.96313,-2.7454 -4.23648,-4.0494c-1.3094,-1.3409 -2.25166,-2.4385 -2.68259,-3.1389l-3.40682,2.0961c0.68683,1.1163 1.91303,2.4913 3.22758,3.8375c1.3506,1.383 2.92234,2.8632 4.40661,4.2135c1.48711,1.3529 2.9014,2.589 3.943,3.4861c0.5212,0.4489 0.9501,0.8138 1.2493,1.067c0.1496,0.1266 0.2668,0.2254 0.3471,0.2928c0.0401,0.0337 0.0709,0.0595 0.092,0.0771c0.0105,0.0088 0.0185,0.0156 0.0241,0.0202c0.0027,0.0023 0.0049,0.0041 0.0063,0.0053c0.0008,0.0006 0.0014,0.0011 0.0018,0.0015c0.0002,0.0002 0.0004,0.0003 0.0005,0.0004c0.0002,0.0001 0.0003,0.0002 1.2818,-1.5353z" fill="#000000" fill-rule="nonzero"></path></g></g></svg>