<svg width="30" height="27" viewBox="0 0 30 27" fill="none" xmlns="http://www.w3.org/2000/svg">
<mask id="path-1-inside-1_1_18" fill="white">
<path fill-rule="evenodd" clip-rule="evenodd" d="M2.11352 14.1406C0.797683 12.6407 0 10.6748 0 8.52273C0 3.81575 3.81575 0 8.52273 0C11.1149 0 13.4369 1.15728 15 2.98337C16.5631 1.15728 18.8851 0 21.4773 0C26.1842 0 30 3.81575 30 8.52273C30 10.7108 29.1754 12.7063 27.8201 14.2155C25.4871 17.8944 14.9902 26.6548 14.9902 26.6548C14.9902 26.6548 4.34904 17.7741 2.11352 14.1406Z"/>
</mask>
<path fill-rule="evenodd" clip-rule="evenodd" d="M2.11352 14.1406C0.797683 12.6407 0 10.6748 0 8.52273C0 3.81575 3.81575 0 8.52273 0C11.1149 0 13.4369 1.15728 15 2.98337C16.5631 1.15728 18.8851 0 21.4773 0C26.1842 0 30 3.81575 30 8.52273C30 10.7108 29.1754 12.7063 27.8201 14.2155C25.4871 17.8944 14.9902 26.6548 14.9902 26.6548C14.9902 26.6548 4.34904 17.7741 2.11352 14.1406Z" fill="red"/>
<path d="M2.11352 14.1406L3.81693 13.0926L3.7284 12.9487L3.617 12.8217L2.11352 14.1406ZM15 2.98337L13.4806 4.28395L15 6.0589L16.5194 4.28395L15 2.98337ZM27.8201 14.2155L26.3321 12.8791L26.2205 13.0034L26.131 13.1444L27.8201 14.2155ZM14.9902 26.6548L13.7087 28.1903L14.9902 29.2598L16.2717 28.1903L14.9902 26.6548ZM3.617 12.8217C2.60893 11.6726 2 10.1712 2 8.52273H-2C-2 11.1785 -1.01357 13.6087 0.610033 15.4595L3.617 12.8217ZM2 8.52273C2 4.92032 4.92032 2 8.52273 2V-2C2.71119 -2 -2 2.71119 -2 8.52273H2ZM8.52273 2C10.5062 2 12.2813 2.88282 13.4806 4.28395L16.5194 1.68278C14.5925 -0.568253 11.7237 -2 8.52273 -2V2ZM16.5194 4.28395C17.7187 2.88282 19.4938 2 21.4773 2V-2C18.2763 -2 15.4075 -0.568253 13.4806 1.68278L16.5194 4.28395ZM21.4773 2C25.0797 2 28 4.92032 28 8.52273H32C32 2.71119 27.2888 -2 21.4773 -2V2ZM28 8.52273C28 10.1986 27.3706 11.7228 26.3321 12.8791L29.308 15.5518C30.9802 13.6899 32 11.223 32 8.52273H28ZM26.131 13.1444C25.6707 13.8703 24.7099 14.9778 23.4029 16.3112C22.1284 17.6114 20.6287 19.0227 19.1851 20.3347C17.7442 21.6442 16.3733 22.842 15.3617 23.713C14.8564 24.1482 14.4416 24.501 14.1539 24.7445C14.01 24.8662 13.8979 24.9605 13.8222 25.0242C13.7844 25.056 13.7556 25.0801 13.7365 25.0961C13.7269 25.1041 13.7198 25.1101 13.7151 25.1139C13.7128 25.1159 13.7111 25.1173 13.71 25.1182C13.7095 25.1187 13.7091 25.119 13.7089 25.1192C13.7088 25.1193 13.7087 25.1193 13.7087 25.1193C13.7086 25.1193 13.7087 25.1193 14.9902 26.6548C16.2717 28.1903 16.2718 28.1902 16.2719 28.1901C16.272 28.19 16.2722 28.1899 16.2724 28.1897C16.2728 28.1893 16.2734 28.1889 16.2742 28.1883C16.2756 28.187 16.2777 28.1853 16.2805 28.183C16.2859 28.1784 16.2939 28.1718 16.3042 28.1631C16.325 28.1457 16.3554 28.1202 16.395 28.0869C16.4742 28.0204 16.5899 27.923 16.7377 27.798C17.0331 27.548 17.4566 27.1877 17.9718 26.7441C19.0013 25.8576 20.4005 24.6353 21.8754 23.2948C23.3476 21.9569 24.9096 20.4883 26.2594 19.1112C27.5768 17.7673 28.8029 16.4002 29.5091 15.2865L26.131 13.1444ZM14.9902 26.6548C16.2717 25.1193 16.2717 25.1193 16.2717 25.1193C16.2716 25.1193 16.2716 25.1193 16.2715 25.1192C16.2712 25.119 16.2709 25.1186 16.2703 25.1182C16.2692 25.1173 16.2675 25.1158 16.2651 25.1139C16.2604 25.1099 16.2532 25.1039 16.2435 25.0957C16.2241 25.0795 16.1949 25.0551 16.1566 25.0228C16.0798 24.9584 15.9663 24.8628 15.8205 24.7394C15.5291 24.4928 15.1091 24.1355 14.5978 23.6951C13.5743 22.8135 12.1886 21.6024 10.736 20.2809C9.28058 18.9568 7.77287 17.5355 6.49952 16.2315C5.19012 14.8906 4.24786 13.793 3.81693 13.0926L0.410106 15.1887C1.09694 16.305 2.32314 17.68 3.63769 19.0262C4.98829 20.4092 6.56003 21.8894 8.0443 23.2397C9.53141 24.5926 10.9457 25.8287 11.9873 26.7258C12.5085 27.1747 12.9374 27.5396 13.2366 27.7928C13.3862 27.9194 13.5034 28.0182 13.5837 28.0856C13.6238 28.1193 13.6546 28.1451 13.6757 28.1627C13.6862 28.1715 13.6942 28.1783 13.6998 28.1829C13.7025 28.1852 13.7047 28.187 13.7061 28.1882C13.7069 28.1888 13.7075 28.1893 13.7079 28.1897C13.7081 28.1899 13.7083 28.19 13.7084 28.1901C13.7086 28.1902 13.7087 28.1903 14.9902 26.6548Z" fill="black" mask="url(#path-1-inside-1_1_18)"/>
</svg>
